<?xml version="1.0" encoding="UTF-8"?>
<svg width="448px" height="385px" viewBox="0 0 448 385" version="1.1" xmlns="http://www.w3.org/2000/svg" xmlns:xlink="http://www.w3.org/1999/xlink">
    <!-- Generator: sketchtool 48.2 (47327) - http://www.bohemiancoding.com/sketch -->
    <title>23882209-99A7-4C87-8645-60D0B409EDD2</title>
    <desc>Created with sketchtool.</desc>
    <defs></defs>
    <g id="google_plus" stroke="none" stroke-width="1" fill="none" fill-rule="evenodd">
        <path d="M210.1,211.6 L191.9,197.9 L191.8,197.8 C186,193.2 181.8,189.5 181.8,183.1 C181.8,176.1 186.8,171.3 192.7,165.7 L193.2,165.3 C213.2,150.1 237.9,131 237.9,90.7 C237.9,63.8 226,46 214.6,33 L227.6,33 L288,0 L154.5,0 C129.2,0 91.8,3.2 59.9,28.6 L59.8,28.9 C38,46.9 25,73.4 25,99.5 C25,120.7 33.7,141.7 48.9,156.9 C70.3,178.5 97.2,183 116,183 C117.5,183 119,183 120.5,182.9 C119.7,185.9 119.3,189.2 119.3,193.2 C119.3,204.1 122.9,212.5 127.4,219.4 C103.4,221.3 69.3,225.9 42.5,241.7 C3.1,264.4 0,297.7 0,307.3 C0,345.5 35.7,384.1 115.5,384.1 C207.1,384.1 255,334.3 255,285.1 C255,248 232.2,229.5 210.1,211.6 Z M84.7,75.9 C84.7,62.5 87.7,52.4 94,45 C100.5,37.1 112.2,31.9 123,31.9 C142.9,31.9 155.9,46.9 163.4,59.5 C172.6,75 178.3,95.6 178.3,113.1 C178.3,118 178.3,133.1 168.1,142.9 C161.1,149.6 149.4,154.3 139.5,154.3 C119,154.3 106,139.6 98.8,127.3 C88.4,109.5 84.7,89.1 84.7,75.9 Z M205.8,304 C205.8,331.4 180.6,348.5 140,348.5 C91.9,348.5 59.7,327.9 59.7,297.2 C59.7,271.1 81.2,260.4 97.5,254.7 C116.4,248.6 141.8,247.4 147.6,247.4 C151.5,247.4 153.7,247.4 156.3,247.6 C192.9,272.8 205.8,283.7 205.8,304 Z M370,78 L448,78 L448,112 L370,112 L370,193 L336,193 L336,112 L256,112 L256,78 L336,78 L336,0 L370,0 L370,78 Z" id="Shape" fill="#000000" fill-rule="nonzero"></path>
    </g>
</svg>