<?xml version="1.0" encoding="UTF-8"?>
<svg width="18px" height="18px" viewBox="0 0 18 18" version="1.1" xmlns="http://www.w3.org/2000/svg" xmlns:xlink="http://www.w3.org/1999/xlink">
    <!-- Generator: sketchtool 48.2 (47327) - http://www.bohemiancoding.com/sketch -->
    <title>E5B8B35E-2DB2-40EA-9BAC-9E4131D6E556</title>
    <desc>Created with sketchtool.</desc>
    <defs></defs>
    <g id="component/footer" stroke="none" stroke-width="1" fill="none" fill-rule="evenodd" transform="translate(-1090.000000, -50.000000)" opacity="0.669999957">
        <g id="подвал" fill="#131313">
            <g id="social" transform="translate(1062.000000, 50.000000)">
                <g id="insta" transform="translate(28.000000, 0.000000)">
                    <path d="M5,0 L13,0 C15.7614237,-5.07265313e-16 18,2.23857625 18,5 L18,13 C18,15.7614237 15.7614237,18 13,18 L5,18 C2.23857625,18 3.38176876e-16,15.7614237 0,13 L0,5 C-3.38176876e-16,2.23857625 2.23857625,5.07265313e-16 5,0 Z M5.5,1.5 C3.290861,1.5 1.5,3.290861 1.5,5.5 L1.5,12.5 C1.5,14.709139 3.290861,16.5 5.5,16.5 L12.5,16.5 C14.709139,16.5 16.5,14.709139 16.5,12.5 L16.5,5.5 C16.5,3.290861 14.709139,1.5 12.5,1.5 L5.5,1.5 Z M14,5 C13.4477153,5 13,4.55228475 13,4 C13,3.44771525 13.4477153,3 14,3 C14.5522847,3 15,3.44771525 15,4 C15,4.55228475 14.5522847,5 14,5 Z M9,13.5 C6.51471863,13.5 4.5,11.4852814 4.5,9 C4.5,6.51471863 6.51471863,4.5 9,4.5 C11.4852814,4.5 13.5,6.51471863 13.5,9 C13.5,11.4852814 11.4852814,13.5 9,13.5 Z M9,12 C10.6568542,12 12,10.6568542 12,9 C12,7.34314575 10.6568542,6 9,6 C7.34314575,6 6,7.34314575 6,9 C6,10.6568542 7.34314575,12 9,12 Z" id="Rectangle-Copy-2"></path>
                </g>
            </g>
        </g>
    </g>
</svg>