<?xml version="1.0" encoding="UTF-8"?>
<svg width="18px" height="18px" viewBox="0 0 18 18" version="1.1" xmlns="http://www.w3.org/2000/svg" xmlns:xlink="http://www.w3.org/1999/xlink">
    <!-- Generator: sketchtool 48.2 (47327) - http://www.bohemiancoding.com/sketch -->
    <title>97021715-7DB8-4049-9059-D641477ABDB3</title>
    <desc>Created with sketchtool.</desc>
    <defs></defs>
    <g id="component/menu_960" stroke="none" stroke-width="1" fill="none" fill-rule="evenodd" transform="translate(-1696.000000, -16.000000)">
        <path d="M1701,16 L1709,16 C1711.76142,16 1714,18.2385763 1714,21 L1714,29 C1714,31.7614237 1711.76142,34 1709,34 L1701,34 C1698.23858,34 1696,31.7614237 1696,29 L1696,21 C1696,18.2385763 1698.23858,16 1701,16 Z M1701.5,17.5 C1699.29086,17.5 1697.5,19.290861 1697.5,21.5 L1697.5,28.5 C1697.5,30.709139 1699.29086,32.5 1701.5,32.5 L1708.5,32.5 C1710.70914,32.5 1712.5,30.709139 1712.5,28.5 L1712.5,21.5 C1712.5,19.290861 1710.70914,17.5 1708.5,17.5 L1701.5,17.5 Z M1710,21 C1709.44772,21 1709,20.5522847 1709,20 C1709,19.4477153 1709.44772,19 1710,19 C1710.55228,19 1711,19.4477153 1711,20 C1711,20.5522847 1710.55228,21 1710,21 Z M1705,29.5 C1702.51472,29.5 1700.5,27.4852814 1700.5,25 C1700.5,22.5147186 1702.51472,20.5 1705,20.5 C1707.48528,20.5 1709.5,22.5147186 1709.5,25 C1709.5,27.4852814 1707.48528,29.5 1705,29.5 Z M1705,28 C1706.65685,28 1708,26.6568542 1708,25 C1708,23.3431458 1706.65685,22 1705,22 C1703.34315,22 1702,23.3431458 1702,25 C1702,26.6568542 1703.34315,28 1705,28 Z" id="Rectangle-Copy" fill="#939597"></path>
    </g>
</svg>