<?xml version="1.0" encoding="UTF-8"?>
<svg width="16px" height="16px" viewBox="0 0 16 16" version="1.1" xmlns="http://www.w3.org/2000/svg" xmlns:xlink="http://www.w3.org/1999/xlink">
    <!-- Generator: sketchtool 48.2 (47327) - http://www.bohemiancoding.com/sketch -->
    <title>49399B67-7CBD-4A95-B3CA-880D87401B76</title>
    <desc>Created with sketchtool.</desc>
    <defs></defs>
    <g id="footer_mobile" stroke="none" stroke-width="1" fill="none" fill-rule="evenodd" transform="translate(-20.000000, -222.000000)">
        <path d="M23,222 L33,222 C34.6568542,222 36,223.343146 36,225 L36,235 C36,236.656854 34.6568542,238 33,238 L23,238 C21.3431458,238 20,236.656854 20,235 L20,225 C20,223.343146 21.3431458,222 23,222 Z M23.3333333,223.333333 C22.2287638,223.333333 21.3333333,224.228764 21.3333333,225.333333 L21.3333333,234.666667 C21.3333333,235.771236 22.2287638,236.666667 23.3333333,236.666667 L32.6666667,236.666667 C33.7712362,236.666667 34.6666667,235.771236 34.6666667,234.666667 L34.6666667,225.333333 C34.6666667,224.228764 33.7712362,223.333333 32.6666667,223.333333 L23.3333333,223.333333 Z M32.4444444,226.444444 C31.9535247,226.444444 31.5555556,226.046475 31.5555556,225.555556 C31.5555556,225.064636 31.9535247,224.666667 32.4444444,224.666667 C32.9353642,224.666667 33.3333333,225.064636 33.3333333,225.555556 C33.3333333,226.046475 32.9353642,226.444444 32.4444444,226.444444 Z M28,234 C25.790861,234 24,232.209139 24,230 C24,227.790861 25.790861,226 28,226 C30.209139,226 32,227.790861 32,230 C32,232.209139 30.209139,234 28,234 Z M28,232.666667 C29.4727593,232.666667 30.6666667,231.472759 30.6666667,230 C30.6666667,228.527241 29.4727593,227.333333 28,227.333333 C26.5272407,227.333333 25.3333333,228.527241 25.3333333,230 C25.3333333,231.472759 26.5272407,232.666667 28,232.666667 Z" id="Rectangle-Copy" fill="#939597"></path>
    </g>
</svg>