<?xml version="1.0" encoding="UTF-8"?>
<svg width="16px" height="10px" viewBox="0 0 16 10" version="1.1" xmlns="http://www.w3.org/2000/svg" xmlns:xlink="http://www.w3.org/1999/xlink">
    <!-- Generator: sketchtool 48.2 (47327) - http://www.bohemiancoding.com/sketch -->
    <title>0ADA2CE1-2C8C-4423-B2A2-3F02B003C9C8</title>
    <desc>Created with sketchtool.</desc>
    <defs></defs>
    <g id="component/menu_960" stroke="none" stroke-width="1" fill="none" fill-rule="evenodd" transform="translate(-1669.000000, -20.000000)">
        <path d="M1684.91514,28.6279878 C1684.89577,28.5868229 1684.87771,28.5526769 1684.86093,28.5253199 C1684.58333,28.0324045 1684.05285,27.4273856 1683.2698,26.7100908 L1683.24497,26.6856105 C1682.8728,26.3433456 1682.64775,26.1187649 1682.55351,26.0037849 C1682.38107,25.7847561 1682.34244,25.563052 1682.43668,25.3384138 C1682.50327,25.1686909 1682.75338,24.8102592 1683.18644,24.2626298 C1683.41423,23.9724037 1683.59464,23.7397971 1683.72786,23.564551 C1684.68872,22.3051499 1685.1053,21.5003759 1684.9775,21.1499126 L1684.92787,21.0680142 C1684.7612,20.932466 1684.51811,20.9777446 1684.51811,20.9719985 C1684.41702,20.9692369 1684.25015,20.9692369 1684.01753,20.9719985 L1681.51461,20.9719985 C1681.4887,20.9629466 1681.45735,20.964862 1681.42056,20.9777446 L1681.38741,21.0024551 C1681.35964,21.0187945 1681.32909,21.0475324 1681.29574,21.088611 C1681.26256,21.1295459 1681.23481,21.1775861 1681.21264,21.2323289 C1680.95144,21.8948521 1680.65446,22.510831 1680.32116,23.0802368 C1680.11566,23.4197688 1679.92694,23.7140222 1679.75459,23.9631696 C1679.58246,24.2122307 1679.43806,24.3957328 1679.32153,24.5133593 C1679.20481,24.631101 1679.09948,24.7254266 1679.00489,24.7966814 C1678.91044,24.867965 1678.83834,24.8980836 1678.78842,24.887066 C1678.73838,24.8760484 1678.69125,24.8651171 1678.64664,24.8541858 C1678.56894,24.8048799 1678.50644,24.737825 1678.45932,24.6529636 C1678.41199,24.5681021 1678.38013,24.4612918 1678.36347,24.3326189 C1678.3469,24.2038596 1678.33709,24.0931083 1678.33429,23.9999908 C1678.33169,23.9069885 1678.33289,23.7754389 1678.33852,23.605716 C1678.3443,23.4359069 1678.3469,23.3210131 1678.3469,23.2607759 C1678.3469,23.0526784 1678.35101,22.826832 1678.35927,22.583179 C1678.36767,22.339526 1678.37447,22.1464735 1678.38016,22.0042515 C1678.38582,21.8618856 1678.38844,21.7112638 1678.38844,21.5524722 C1678.38844,21.3936807 1678.37864,21.2691501 1678.35927,21.1787655 C1678.34013,21.088496 1678.31074,21.000873 1678.27202,20.9159252 C1678.23307,20.8310638 1678.17606,20.7654185 1678.10125,20.7188166 C1678.02629,20.6722723 1677.93309,20.635336 1677.82219,20.6078926 C1677.52781,20.5422185 1677.15296,20.5066918 1676.69747,20.5011686 C1675.66454,20.4902373 1675.00083,20.5559977 1674.70648,20.6983635 C1674.58985,20.7585145 1674.48432,20.8407006 1674.38996,20.9446631 C1674.28996,21.0651663 1674.27602,21.1309267 1674.3482,21.1417429 C1674.68147,21.1909626 1674.91741,21.3087042 1675.05626,21.4948528 L1675.1063,21.5934934 C1675.14523,21.6646619 1675.18409,21.7906596 1675.22299,21.9713137 C1675.26182,22.1519679 1675.28689,22.3518093 1675.29792,22.5707231 C1675.32563,22.9704923 1675.32563,23.3126996 1675.29792,23.5973737 C1675.27011,23.8821629 1675.24385,24.103867 1675.21878,24.2626585 C1675.19372,24.4214501 1675.15626,24.550123 1675.1063,24.6486486 C1675.05626,24.7472029 1675.02297,24.8074401 1675.00628,24.8293027 C1674.98962,24.8511653 1674.97573,24.8649445 1674.9647,24.8703526 C1674.89252,24.8976234 1674.81744,24.9115176 1674.73974,24.9115176 C1674.66192,24.9115176 1674.56756,24.873143 1674.45651,24.7964513 C1674.34549,24.7197596 1674.23027,24.6144163 1674.11084,24.480249 C1673.99141,24.3460529 1673.85673,24.1585235 1673.70673,23.9176321 C1673.55684,23.6767407 1673.40132,23.3920378 1673.24026,23.0635234 L1673.107,22.8252786 C1673.0237,22.6720102 1672.9099,22.448839 1672.7655,22.1559664 C1672.62101,21.8629788 1672.4933,21.5795704 1672.38228,21.3057988 C1672.3379,21.1908187 1672.27123,21.103282 1672.18238,21.0430448 L1672.14069,21.0183343 C1672.11297,20.9964717 1672.06847,20.973257 1672.00743,20.9485178 C1671.9463,20.9238073 1671.88252,20.9060871 1671.81582,20.8951845 L1669.53326,20.9115239 C1669.30001,20.9115239 1669.14175,20.9636202 1669.05841,21.067669 L1669.02506,21.1168886 C1669.0084,21.1443032 1669,21.1880859 1669,21.2483519 C1669,21.3085891 1669.01666,21.3825192 1669.05001,21.470056 C1669.38322,22.2421511 1669.74558,22.9867742 1670.13709,23.7040402 C1670.5286,24.4213062 1670.86882,24.9990831 1671.15753,25.436853 C1671.44631,25.8749393 1671.74066,26.2884015 1672.04058,26.677038 C1672.3405,27.0658184 1672.53902,27.3149658 1672.63616,27.4244227 C1672.73341,27.5340809 1672.80979,27.6160657 1672.86532,27.6708085 L1673.07362,27.8678884 C1673.20691,27.9993229 1673.40263,28.1567336 1673.66089,28.3401206 C1673.9192,28.5236227 1674.20517,28.7042768 1674.51895,28.8823708 C1674.83279,29.060177 1675.19789,29.2052757 1675.61447,29.3174941 C1676.03098,29.4298276 1676.43638,29.4749049 1676.83072,29.4531573 L1677.78875,29.4531573 C1677.98305,29.4366166 1678.13025,29.3763793 1678.2303,29.2724169 L1678.26345,29.2312519 C1678.28574,29.1985731 1678.3066,29.1478 1678.32586,29.0794794 C1678.34535,29.0110437 1678.35504,28.9356465 1678.35504,28.8536329 C1678.34935,28.618236 1678.36752,28.4060824 1678.40907,28.217201 C1678.45059,28.0283771 1678.49792,27.8860113 1678.55085,27.7901323 C1678.60375,27.6943396 1678.66345,27.6135054 1678.72988,27.5479752 C1678.79647,27.4823011 1678.84391,27.4425169 1678.87175,27.428824 C1678.89941,27.4150448 1678.9215,27.4056956 1678.93816,27.4000862 C1679.07144,27.3563034 1679.2283,27.3987054 1679.40897,27.5274934 C1679.5895,27.6561663 1679.75882,27.8150441 1679.91719,28.003868 C1680.07548,28.1928645 1680.26567,28.404903 1680.48777,28.6402999 C1680.71002,28.8757832 1680.90434,29.0508279 1681.07089,29.1659805 L1681.23744,29.2645348 C1681.34866,29.3302953 1681.49307,29.3905325 1681.67082,29.4452753 C1681.84825,29.4999893 1682.00371,29.5136822 1682.1372,29.4863252 L1684.26973,29.4535313 C1684.48066,29.4535313 1684.64478,29.4190977 1684.7612,29.3507771 C1684.87786,29.2823414 1684.94715,29.2069441 1684.9695,29.1249306 C1684.99179,29.0428308 1684.99299,28.9496846 1684.97373,28.8455495 C1684.95398,28.7416734 1684.93452,28.6690378 1684.91514,28.6279878 Z" id="Shape-Copy" fill="#939597" fill-rule="nonzero"></path>
    </g>
</svg>