<?xml version="1.0" encoding="UTF-8"?>
<svg width="16px" height="10px" viewBox="0 0 16 10" version="1.1" xmlns="http://www.w3.org/2000/svg" xmlns:xlink="http://www.w3.org/1999/xlink">
    <!-- Generator: sketchtool 48.2 (47327) - http://www.bohemiancoding.com/sketch -->
    <title>82B143B3-2331-4185-9320-2C4F4E7F0576</title>
    <desc>Created with sketchtool.</desc>
    <defs></defs>
    <g id="component/footer" stroke="none" stroke-width="1" fill="none" fill-rule="evenodd" transform="translate(-1063.000000, -54.000000)" opacity="0.669999957">
        <g id="подвал" fill="#939597" fill-rule="nonzero">
            <g id="social" transform="translate(1062.000000, 50.000000)">
                <g id="vk">
                    <path d="M16.9151445,12.6279878 C16.8957703,12.5868229 16.8777092,12.5526769 16.8609319,12.5253199 C16.5833328,12.0324045 16.0528484,11.4273856 15.2697996,10.7100908 L15.2449692,10.6856105 C14.8728044,10.3433456 14.6477548,10.1187649 14.55351,10.0037849 C14.3810683,9.78475609 14.3424367,9.56305202 14.4366815,9.33841375 C14.5032656,9.1686909 14.753379,8.81025925 15.1864382,8.26262976 C15.4142305,7.97240368 15.5946378,7.73979708 15.7278643,7.56455104 C16.6887236,6.30514994 17.1052972,5.50037595 16.9774978,5.14991264 L16.9278661,5.06801417 C16.7612016,4.93246602 16.5181128,4.97774462 16.5181128,4.9719985 C16.417016,4.96923691 16.2501546,4.96923691 16.0175285,4.9719985 L13.5146071,4.9719985 C13.4886971,4.96294661 13.4573478,4.96486199 13.4205592,4.97774462 L13.3874131,5.00245512 C13.3596357,5.01879454 13.3290863,5.04753236 13.2957359,5.08861104 C13.2625606,5.1295459 13.2348124,5.17758609 13.2126371,5.2323289 C12.9514361,5.89485213 12.6544629,6.51083102 12.3211631,7.08023681 C12.1156628,7.41976882 11.9269397,7.71402222 11.7545856,7.96316961 C11.5824648,8.21223071 11.4380631,8.39573275 11.3215264,8.51335932 C11.2048145,8.63110095 11.0994821,8.72542659 11.0048872,8.79668142 C10.9104382,8.86796502 10.8383394,8.89808363 10.788416,8.88706603 C10.7383758,8.87604843 10.6912534,8.86511713 10.6466403,8.85418582 C10.5689394,8.8048799 10.5064402,8.73782499 10.4593178,8.65296356 C10.4119912,8.56810213 10.3801288,8.4612918 10.3634682,8.33261887 C10.3468951,8.20385963 10.3370914,8.09310828 10.3342903,7.99999084 C10.3316934,7.90698847 10.3328897,7.77543888 10.3385211,7.60571602 C10.3442983,7.43590687 10.3468951,7.32101313 10.3468951,7.2607759 C10.3468951,7.05267842 10.3510092,6.82683196 10.3592666,6.58317898 C10.3676698,6.339526 10.3744683,6.14647345 10.380158,6.00425145 C10.3858185,5.86188562 10.3884446,5.71126378 10.3884446,5.55247223 C10.3884446,5.39368068 10.3786408,5.26915013 10.3592666,5.17876552 C10.3401259,5.08849598 10.3107437,5.00087296 10.2720245,4.91592523 C10.2330719,4.83106381 10.1760582,4.76541846 10.1012459,4.71881659 C10.0262878,4.67227226 9.93309339,4.63533596 9.82218799,4.60789264 C9.5278116,4.54221852 9.15296242,4.50669179 8.69746537,4.50116861 C7.6645366,4.4902373 7.00082567,4.55599772 6.70647846,4.69836355 C6.58985418,4.75851448 6.48431752,4.84070061 6.38995601,4.94466305 C6.28996316,5.06516628 6.2760161,5.13092669 6.34820236,5.14174293 C6.68147296,5.19096255 6.9174059,5.30870419 7.05626378,5.49485276 L7.10630398,5.59349338 C7.14522737,5.66466191 7.1840924,5.79065956 7.22298662,5.97131371 C7.26182247,6.15196787 7.28688634,6.35180934 7.2979156,6.57072305 C7.32563466,6.97049229 7.32563466,7.31269958 7.2979156,7.59737371 C7.27010901,7.88216291 7.24384885,8.10386698 7.21878499,8.26265853 C7.19372113,8.42145008 7.15625663,8.55012302 7.10630398,8.64864857 C7.05626378,8.74720289 7.02297174,8.80744012 7.00628195,8.82930273 C6.98962134,8.85116533 6.97573263,8.86494453 6.96470336,8.87035264 C6.8925171,8.89762337 6.81744223,8.91151763 6.73974133,8.91151763 C6.66192373,8.91151763 6.56756222,8.873143 6.45651093,8.79645129 C6.34548881,8.71975957 6.23026507,8.61441633 6.1108397,8.48024898 C5.99141433,8.34605286 5.85672889,8.15852349 5.70672503,7.91763211 C5.55683788,7.67674072 5.40131938,7.39203783 5.24025707,7.06352342 L5.10700135,6.82527856 C5.02369829,6.6720102 4.90990427,6.44883903 4.76550257,6.15596642 C4.62101334,5.86297875 4.49330143,5.57957036 4.38227932,5.30579876 C4.33789965,5.19081872 4.27122802,5.103282 4.18238115,5.04304477 L4.14068585,5.01833428 C4.11296679,4.99647167 4.06847041,4.97325704 4.00743013,4.94851777 C3.94630232,4.92380728 3.88251931,4.90608706 3.81581851,4.89518452 L1.5332563,4.91152395 C1.30000773,4.91152395 1.1417465,4.96362023 1.05841427,5.06766897 L1.02506386,5.1168886 C1.00840325,5.14430315 1,5.1880859 1,5.24835189 C1,5.30858912 1.01666061,5.38251925 1.05001101,5.47005596 C1.38322326,6.24215111 1.74558427,6.98677417 2.13709407,7.70404021 C2.52860386,8.42130625 2.86881881,8.99908311 3.15753467,9.43685301 C3.44630889,9.87493934 3.74065609,10.2884015 4.04057629,10.677038 C4.34049648,11.0658184 4.53902329,11.3149658 4.6361567,11.4244227 C4.73340682,11.5340809 4.80979471,11.6160657 4.86532035,11.6708085 L5.07362177,11.8678884 C5.20690667,11.9993229 5.40263239,12.1567336 5.66088646,12.3401206 C5.91919889,12.5236227 6.20517203,12.7042768 6.51895175,12.8823708 C6.83278983,13.060177 7.19789358,13.2052757 7.61446723,13.3174941 C8.03098253,13.4298276 8.43638104,13.4749049 8.83072109,13.4531573 L9.78875005,13.4531573 C9.98304605,13.4366166 10.1302488,13.3763793 10.2303,13.2724169 L10.2634462,13.2312519 C10.2857382,13.1985731 10.3066004,13.1478 10.3258578,13.0794794 C10.3453487,13.0110437 10.3550358,12.9356465 10.3550358,12.8536329 C10.3493461,12.618236 10.367524,12.4060824 10.4090734,12.217201 C10.4505936,12.0283771 10.4979202,11.8860113 10.550849,11.7901323 C10.6037487,11.6943396 10.6634468,11.6135054 10.729885,11.5479752 C10.7964691,11.4823011 10.8439124,11.4425169 10.8717482,11.428824 C10.8994089,11.4150448 10.9214966,11.4056956 10.9381572,11.4000862 C11.0714421,11.3563034 11.2283028,11.3987054 11.4089727,11.5274934 C11.5894967,11.6561663 11.7588164,11.8150441 11.9171943,12.003868 C12.0754847,12.1928645 12.2656666,12.404903 12.4877692,12.6402999 C12.7100177,12.8757832 12.9043429,13.0508279 13.0708906,13.1659805 L13.2374384,13.2645348 C13.3486648,13.3302953 13.4930665,13.3905325 13.6708186,13.4452753 C13.8482497,13.4999893 14.0037098,13.5136822 14.137199,13.4863252 L16.2697281,13.4535313 C16.4806556,13.4535313 16.6447816,13.4190977 16.7612016,13.3507771 C16.8778551,13.2823414 16.9471527,13.2069441 16.969503,13.1249306 C16.991795,13.0428308 16.9929913,12.9496846 16.9737338,12.8455495 C16.9539804,12.7416734 16.9345187,12.6690378 16.9151445,12.6279878 Z" id="Shape"></path>
                </g>
            </g>
        </g>
    </g>
</svg>