<?xml version="1.0" encoding="UTF-8"?>
<svg width="16px" height="12px" viewBox="0 0 16 12" version="1.1" xmlns="http://www.w3.org/2000/svg" xmlns:xlink="http://www.w3.org/1999/xlink">
    <!-- Generator: sketchtool 48.2 (47327) - http://www.bohemiancoding.com/sketch -->
    <title>D752C79C-3857-4C3E-94CB-7FC45F302D7F</title>
    <desc>Created with sketchtool.</desc>
    <defs></defs>
    <g id="weDO_menu_mobile" stroke="none" stroke-width="1" fill="none" fill-rule="evenodd" transform="translate(-116.000000, -516.000000)">
        <path d="M131.670445,517.752876 C132.013112,519.00493 131.999933,521.614474 131.999933,521.614474 C131.999933,521.614474 131.999933,524.210839 131.670445,525.462893 C131.485932,526.148228 130.945571,526.688588 130.260237,526.873101 C129.008183,527.202589 123.999966,527.202589 123.999966,527.202589 C123.999966,527.202589 119.00493,527.202589 117.739696,526.859921 C117.054361,526.675408 116.514001,526.135048 116.329488,525.449713 C116,524.210839 116,521.601294 116,521.601294 C116,521.601294 116,519.00493 116.329488,517.752876 C116.514001,517.067541 117.067541,516.514001 117.739696,516.329488 C118.99175,516 123.999966,516 123.999966,516 C123.999966,516 129.008183,516 130.260237,516.342667 C130.945571,516.527181 131.485932,517.067541 131.670445,517.752876 Z M126.569972,521.601294 L122.405245,519.202622 L122.405245,523.999966 L126.569972,521.601294 Z" id="path7" fill="#939597" fill-rule="nonzero"></path>
    </g>
</svg>